<?xml version="1.0" encoding="UTF-8" standalone="no"?>
<!-- Generator: Adobe Illustrator 16.0.0, SVG Export Plug-In . SVG Version: 6.00 Build 0)  -->

<svg
   xmlns:dc="http://purl.org/dc/elements/1.1/"
   xmlns:cc="http://creativecommons.org/ns#"
   xmlns:rdf="http://www.w3.org/1999/02/22-rdf-syntax-ns#"
   xmlns:svg="http://www.w3.org/2000/svg"
   xmlns="http://www.w3.org/2000/svg"
   xmlns:sodipodi="http://sodipodi.sourceforge.net/DTD/sodipodi-0.dtd"
   xmlns:inkscape="http://www.inkscape.org/namespaces/inkscape"
   version="1.1"
   id="Layer_1"
   x="0px"
   y="0px"
   width="39.697754"
   height="39.698513"
   viewBox="0 0 39.697755 39.698513"
   enable-background="new 0 0 120.001 116.002"
   xml:space="preserve"
   inkscape:version="0.48.4 r9939"
   sodipodi:docname="pictogramablanco.svg"><metadata
     id="metadata3047"><rdf:RDF><cc:Work
         rdf:about=""><dc:format>image/svg+xml</dc:format><dc:type
           rdf:resource="http://purl.org/dc/dcmitype/StillImage" /><dc:title></dc:title></cc:Work></rdf:RDF></metadata><defs
     id="defs3045" /><sodipodi:namedview
     pagecolor="#ffffff"
     bordercolor="#666666"
     borderopacity="1"
     objecttolerance="10"
     gridtolerance="10"
     guidetolerance="10"
     inkscape:pageopacity="0"
     inkscape:pageshadow="2"
     inkscape:window-width="1408"
     inkscape:window-height="882"
     id="namedview3043"
     showgrid="false"
     fit-margin-top="0"
     fit-margin-left="0"
     fit-margin-right="0"
     fit-margin-bottom="0"
     inkscape:zoom="6.1119636"
     inkscape:cx="50.9365"
     inkscape:cy="-12.857486"
     inkscape:window-x="32"
     inkscape:window-y="18"
     inkscape:window-maximized="1"
     inkscape:current-layer="Layer_1" /><path
     inkscape:connector-curvature="0"
     id="path3039"
     d="m 23.944713,14.145937 c -0.75948,-0.512526 -1.525419,-0.659559 -2.297437,-0.43996 -0.770879,0.2196 -1.477549,0.803173 -2.11697,1.750718 l -1.179304,1.747299 4.866144,3.284875 1.121554,-1.661434 c 0.647782,-0.959704 0.934248,-1.851019 0.858262,-2.676228 -0.07598,-0.823308 -0.492768,-1.492744 -1.252249,-2.00527 z"
     style="fill:#ffffff" /><path
     inkscape:connector-curvature="0"
     id="path3041"
     d="M 19.848687,-5.6238839e-7 C 8.8861844,-5.6238839e-7 0,8.8869439 0,19.849827 c 0,10.961361 8.8865646,19.848687 19.848687,19.848687 10.961741,0 19.849067,-8.887706 19.849067,-19.848687 C 39.697754,8.8869439 30.810428,-5.6238839e-7 19.848687,-5.6238839e-7 z M 11.46515,19.12606 c 0,0 0.626125,-0.489729 1.46729,-1.130671 l 1.263647,-0.308124 -1.642057,3.070214 -2.495381,-0.271269 1.406501,-1.36015 z m 8.483459,10.919189 c -1.716905,2.661792 -2.407617,2.055804 -2.407617,2.055804 -0.586992,-0.633344 -0.468454,-1.600267 -0.27469,-2.366206 0.113983,-0.450598 0.261013,-1.129912 0.562677,-1.503382 -0.488211,0.605608 -0.999216,1.196399 -1.546696,1.752618 -0.670576,0.676654 -1.397002,1.346851 -2.219931,1.838101 -0.322181,0.190724 -0.656139,0.38107 -1.002636,0.529622 -0.330919,0.142858 -1.080521,0.389047 -1.427777,0.154633 -1.7944094,-1.211218 1.726403,-7.132429 1.726403,-7.132429 -0.359414,0.612068 -0.834327,1.300882 -1.400043,1.740838 -0.352575,0.273933 -1.004535,0.476435 -1.441075,0.356757 -1.942582,-0.527723 0.496569,-3.468002 1.110916,-4.157576 0.366633,-0.409564 0.715788,-0.818369 1.082801,-1.227174 l 8.36492,5.43908 -1.127252,2.519314 z m 4.078169,-2.43991 -0.735924,1.813407 -1.184242,-2.212711 2.232849,-2.67167 0.186925,1.287583 c -0.279629,1.019732 -0.499608,1.783391 -0.499608,1.783391 z m 3.487757,-7.733855 c -0.126898,0.221118 -0.26482,0.443377 -0.416401,0.667536 l -5.38399,6.46679 -2.689526,-1.815306 2.596062,-2.33657 -4.866144,-3.284876 -1.19602,3.282216 -2.672428,-1.804668 3.91404,-7.307575 c 0.170968,-0.253413 0.346496,-0.48783 0.524303,-0.711229 0.0011,-0.0011 0.0015,-0.0023 0.0026,-0.0038 1.909908,-2.829719 8.323127,-7.383942 11.152465,-5.4740334 2.822503,1.9049693 0.940709,9.4769754 -0.965021,12.3215134 z"
     style="fill:#ffffff" /></svg>