<?xml version="1.0" encoding="UTF-8" standalone="no"?>
<!-- Generator: Adobe Illustrator 16.0.0, SVG Export Plug-In . SVG Version: 6.00 Build 0)  -->

<svg
   xmlns:dc="http://purl.org/dc/elements/1.1/"
   xmlns:cc="http://creativecommons.org/ns#"
   xmlns:rdf="http://www.w3.org/1999/02/22-rdf-syntax-ns#"
   xmlns:svg="http://www.w3.org/2000/svg"
   xmlns="http://www.w3.org/2000/svg"
   xmlns:sodipodi="http://sodipodi.sourceforge.net/DTD/sodipodi-0.dtd"
   xmlns:inkscape="http://www.inkscape.org/namespaces/inkscape"
   version="1.1"
   id="Layer_1"
   x="0px"
   y="0px"
   width="28.790779"
   height="32.725052"
   viewBox="0 0 28.790779 32.725052"
   enable-background="new 0 0 120.001 116.002"
   xml:space="preserve"
   inkscape:version="0.48.4 r9939"
   sodipodi:docname="pictograma.svg"><metadata
     id="metadata13"><rdf:RDF><cc:Work
         rdf:about=""><dc:format>image/svg+xml</dc:format><dc:type
           rdf:resource="http://purl.org/dc/dcmitype/StillImage" /><dc:title></dc:title></cc:Work></rdf:RDF></metadata><defs
     id="defs11" /><sodipodi:namedview
     pagecolor="#ffffff"
     bordercolor="#666666"
     borderopacity="1"
     objecttolerance="10"
     gridtolerance="10"
     guidetolerance="10"
     inkscape:pageopacity="0"
     inkscape:pageshadow="2"
     inkscape:window-width="1408"
     inkscape:window-height="882"
     id="namedview9"
     showgrid="false"
     inkscape:zoom="2.0344477"
     inkscape:cx="33.732814"
     inkscape:cy="-46.865312"
     inkscape:window-x="32"
     inkscape:window-y="18"
     inkscape:window-maximized="1"
     inkscape:current-layer="Layer_1"
     fit-margin-top="0"
     fit-margin-left="0"
     fit-margin-right="0"
     fit-margin-bottom="0" /><g
     id="g3"
     transform="matrix(0.27554413,0,0,0.31319135,-2.4975325,-1.7053269)"><path
       d="m 72.088,42.678 c -1.999,-1.349 -4.015,-1.736 -6.047,-1.158 -2.029,0.578 -3.889,2.114 -5.572,4.608 L 57.365,50.727 70.173,59.373 73.125,55 c 1.705,-2.526 2.459,-4.872 2.259,-7.044 -0.2,-2.167 -1.297,-3.929 -3.296,-5.278 z"
       id="path5"
       inkscape:connector-curvature="0" /><path
       d="m 61.307,5.445 c -28.854,0 -52.243,23.391 -52.243,52.246 0,28.851 23.39,52.243 52.243,52.243 28.852,0 52.244,-23.393 52.244,-52.243 0,-28.855 -23.392,-52.246 -52.244,-52.246 z M 39.241,55.786 c 0,0 1.648,-1.289 3.862,-2.976 l 3.326,-0.811 -4.322,8.081 -6.568,-0.714 3.702,-3.58 z m 22.329,28.74 c -4.519,7.006 -6.337,5.411 -6.337,5.411 C 53.688,88.27 54,85.725 54.51,83.709 c 0.3,-1.186 0.687,-2.974 1.481,-3.957 -1.285,1.594 -2.63,3.149 -4.071,4.613 -1.765,1.781 -3.677,3.545 -5.843,4.838 -0.848,0.502 -1.727,1.003 -2.639,1.394 -0.871,0.376 -2.844,1.024 -3.758,0.407 -4.723,-3.188 4.544,-18.773 4.544,-18.773 -0.946,1.611 -2.196,3.424 -3.685,4.582 -0.928,0.721 -2.644,1.254 -3.793,0.939 -5.113,-1.389 1.307,-9.128 2.924,-10.943 0.965,-1.078 1.884,-2.154 2.85,-3.23 l 22.017,14.316 -2.967,6.631 z m 10.734,-6.422 -1.937,4.773 -3.117,-5.824 5.877,-7.032 0.492,3.389 c -0.736,2.684 -1.315,4.694 -1.315,4.694 z m 9.18,-20.356 c -0.334,0.582 -0.697,1.167 -1.096,1.757 l -14.171,17.021 -7.079,-4.778 6.833,-6.15 -12.808,-8.646 -3.148,8.639 -7.034,-4.75 10.302,-19.234 c 0.45,-0.667 0.912,-1.284 1.38,-1.872 0.003,-0.003 0.004,-0.006 0.007,-0.01 5.027,-7.448 21.907,-19.435 29.354,-14.408 7.429,5.014 2.476,24.944 -2.54,32.431 z"
       id="path7"
       inkscape:connector-curvature="0" /></g></svg>